# xmcd
# Track frame offsets:
# 150
# 21087
# 39013
# 57954
# 78050
# 95581
# 111749
# 129794
# 144566
# 160159
# 184010
# 205937
# 225963
# 241040
# 256191
#
# Disc length: 3679 seconds
# Revision: 0
# Processed by: cddbd v1.5.1PL0 Copyright (c) Steve Scherf et al.
# Submitted via: VisiTrax 2.9.10.228 - For more info visit www.synapsa.com
#
DISCID=b20e5d0f
DTITLE=Judd, Wynonna - CB90044
DYEAR=1900
DGENRE=Karaoke
TTITLE0=She Is His Only Need
TTITLE1=I Saw The Light
TTITLE2=No One Else On Earth
TTITLE3=My Strongest Weakness
TTITLE4=Tell Me Why
TTITLE5=Only Love
TTITLE6=Is It Over Yet?
TTITLE7=Rock Bottom
TTITLE8=Girls With Guitars
TTITLE9=To Be Loved By You
TTITLE10=Heaven Help My Heart
TTITLE11=My Angel Is Here
TTITLE12=When Love Starts Talking
TTITLE13=Come Some Rainy Day
TTITLE14=Freedom
EXTD=
EXTT0=
EXTT1=
EXTT2=
EXTT3=
EXTT4=
EXTT5=
EXTT6=
EXTT7=
EXTT8=
EXTT9=
EXTT10=
EXTT11=
EXTT12=
EXTT13=
EXTT14=
PLAYORDER=
